<?xml version="1.0" encoding="utf-8"?>
<!-- Generator: Adobe Illustrator 23.1.1, SVG Export Plug-In . SVG Version: 6.00 Build 0)  -->
<svg version="1.1" id="Layer_1" xmlns="http://www.w3.org/2000/svg" xmlns:xlink="http://www.w3.org/1999/xlink" x="0px" y="0px"
	 viewBox="0 0 512 512" style="enable-background:new 0 0 512 512;" xml:space="preserve">
<path d="M256,156c0-9.2-7.5-16.7-16.7-16.7h-86.4L164,86.4c0.2-1.2,0.4-2.6,0.4-3.9c0-5.2-2.1-9.8-5.5-13.2L145.7,56l-82.3,82.3
	c-4.5,4.5-7.3,10.8-7.3,17.7v108.3c0,13.8,11.2,25,25,25h112.5c10.3,0,19.2-6.2,23-15.2l37.8-88.2c1.1-2.8,1.8-5.8,1.8-9.1V156z
	 M431,222.7H318.5c-10.3,0-19.2,6.2-23,15.2l-37.8,88.2c-1.1,2.8-1.7,5.8-1.7,9.1V356c0,9.2,7.5,16.7,16.7,16.7h86.4L348,425.6
	c-0.2,1.2-0.4,2.6-0.4,3.9c0,5.2,2.1,9.8,5.5,13.2l13.3,13.2l82.3-82.3c4.5-4.5,7.3-10.8,7.3-17.7V247.7
	C456,233.8,444.8,222.7,431,222.7z"/>
</svg>
